#N canvas 525 15 661 899 10;
#X obj 118 409 bng 15 250 50 0 empty empty Start 17 7 0 10 -262144
-1 -1;
#N canvas -888 126 863 718 golden_ears_trainer_deluxe 0;
#X msg 226 5 31;
#X msg 226 33 63;
#X msg 226 61 125;
#X msg 226 89 250;
#X msg 226 117 500;
#X msg 226 145 1000;
#X msg 226 173 2000;
#X msg 226 201 4000;
#X msg 226 229 8000;
#X msg 226 257 16000;
#X obj 73 285 switch 10;
#X obj 73 33 + 1;
#X obj 73 5 random 10;
#X obj 73 -23 t b b b b b b b b b b b;
#X obj 559 -45 int;
#X obj 559 -101 inlet;
#X obj 559 49 ==;
#X obj 554 330 spigot;
#X obj 611 330 spigot;
#X obj 559 -73 t f b;
#X obj 637 273 expr 1-$f1;
#X obj 50 -16 bng 15 250 50 0 empty empty empty 17 7 0 10 -262144 -1
-1;
#X floatatom 617 55 5 0 0 0 - - -;
#X obj 559 77 t f f b b b;
#X obj 622 133 t b b b;
#X obj 661 189 t b b b;
#X obj 622 105 delay 500;
#X obj 661 161 delay 500;
#X obj 700 217 delay 500;
#X obj 700 245 t b b;
#X obj 299 166 pink~;
#X obj 299 194 biquad~;
#X obj 299 222 *~ 0.1;
#X obj 346 166 equalizer 1000 30 100;
#X obj 346 -2 t b b f;
#X msg 365 82 30;
#X obj 365 54 t b b b;
#X obj 404 110 t b b;
#X msg 404 138 0;
#X obj 346 138 delay 1;
#X obj 365 26 delay 3000;
#X obj 404 82 delay 3000;
#X obj 346 -30 r geat_freq;
#X obj 73 313 s geat_freq;
#X obj 74 -51 inlet;
#X obj 305 282 outlet~;
#X obj 370 282 outlet~;
#X obj 557 381 outlet;
#X obj 616 378 outlet;
#X floatatom 87 395 5 0 0 0 - - -;
#X obj 602 -76 r geat_freq;
#X obj 557 9 pipe 1;
#X obj 554 302 delay 1;
#X obj 611 302 delay 1;
#X connect 0 0 10 1;
#X connect 1 0 10 2;
#X connect 2 0 10 3;
#X connect 3 0 10 4;
#X connect 4 0 10 5;
#X connect 5 0 10 6;
#X connect 6 0 10 7;
#X connect 7 0 10 8;
#X connect 8 0 10 9;
#X connect 9 0 10 10;
#X connect 10 0 43 0;
#X connect 10 0 49 0;
#X connect 11 0 10 0;
#X connect 12 0 11 0;
#X connect 13 0 12 0;
#X connect 13 1 0 0;
#X connect 13 2 1 0;
#X connect 13 3 2 0;
#X connect 13 4 3 0;
#X connect 13 5 4 0;
#X connect 13 6 5 0;
#X connect 13 7 6 0;
#X connect 13 8 7 0;
#X connect 13 9 8 0;
#X connect 13 10 9 0;
#X connect 14 0 51 0;
#X connect 15 0 19 0;
#X connect 16 0 22 0;
#X connect 16 0 23 0;
#X connect 17 0 47 0;
#X connect 18 0 48 0;
#X connect 19 0 16 1;
#X connect 19 1 14 0;
#X connect 20 0 18 1;
#X connect 23 0 17 1;
#X connect 23 1 20 0;
#X connect 23 2 52 0;
#X connect 23 3 53 0;
#X connect 23 4 26 0;
#X connect 24 0 52 0;
#X connect 24 1 53 0;
#X connect 24 2 27 0;
#X connect 25 0 52 0;
#X connect 25 1 53 0;
#X connect 25 2 28 0;
#X connect 26 0 24 0;
#X connect 27 0 25 0;
#X connect 28 0 29 0;
#X connect 29 0 52 0;
#X connect 29 1 53 0;
#X connect 30 0 31 0;
#X connect 31 0 32 0;
#X connect 32 0 45 0;
#X connect 32 0 46 0;
#X connect 33 0 31 0;
#X connect 34 0 38 0;
#X connect 34 1 40 0;
#X connect 34 2 33 0;
#X connect 35 0 33 1;
#X connect 36 0 35 0;
#X connect 36 1 39 0;
#X connect 36 2 41 0;
#X connect 37 0 38 0;
#X connect 37 1 39 0;
#X connect 38 0 33 1;
#X connect 39 0 33 0;
#X connect 40 0 36 0;
#X connect 41 0 37 0;
#X connect 42 0 34 0;
#X connect 44 0 13 0;
#X connect 44 0 21 0;
#X connect 50 0 14 1;
#X connect 51 0 16 0;
#X connect 52 0 17 0;
#X connect 53 0 18 0;
#X restore 117 433 pd golden_ears_trainer_deluxe;
#X obj 117 461 dac~;
#X obj 219 462 bng 15 250 50 0 empty empty Richtig 17 7 0 10 -262144
-1 -1;
#X obj 288 463 bng 15 250 50 0 empty empty Falsch 17 7 0 10 -262144
-1 -1;
#X msg 305 152 31;
#X msg 305 180 63;
#X msg 305 208 125;
#X msg 305 236 250;
#X msg 305 264 500;
#X msg 305 292 1000;
#X msg 305 320 2000;
#X msg 305 348 4000;
#X msg 305 376 8000;
#X msg 305 404 16000;
#X text 353 293;
#X text 359 299 Tippen;
#X text 112 497 Bedienungsanleitung: 1 Begib dich in Abhörposition.
2 Drücke Start. 3 Höre welche Frequenz angehoben wird. 4 Tippe auf
welche Frequenz angehoben wurde. 5 Überprüfe mit den beiden Blinklichtern
ob du richtig lagst.;
#X connect 0 0 1 0;
#X connect 1 0 2 0;
#X connect 1 1 2 1;
#X connect 1 2 3 0;
#X connect 1 3 4 0;
#X connect 5 0 1 1;
#X connect 6 0 1 1;
#X connect 7 0 1 1;
#X connect 8 0 1 1;
#X connect 9 0 1 1;
#X connect 10 0 1 1;
#X connect 11 0 1 1;
#X connect 12 0 1 1;
#X connect 13 0 1 1;
#X connect 14 0 1 1;
